<svg width="211" height="44" viewBox="0 0 211 44" fill="none" xmlns="http://www.w3.org/2000/svg">
<path d="M27.3017 28.2449C27.3017 32.6163 26.0569 36.1759 24.0652 38.8612L21.7001 36.6755C23.2561 34.4898 24.1897 31.6796 24.1897 28.2449V15.7551C24.1897 8.26119 19.8328 3.26527 13.2975 3.26527H3.21447V36.051H13.2975C17.032 36.051 19.5216 32.9285 19.5216 28.2449V15.7551C19.5216 11.0714 17.032 7.94895 13.2975 7.94895H9.00288L5.82859 4.8265H13.2975C18.8992 4.8265 22.6337 9.19793 22.6337 15.7551V28.2449C22.6337 34.802 18.8992 39.1734 13.2975 39.1734H0.102417V0.142822H13.2975C21.7001 0.142822 27.3017 6.38772 27.3017 15.7551V28.2449ZM4.77049 5.95058L7.88254 9.19792V34.4898H4.77049V5.95058ZM13.2975 40.7347C16.2851 40.7347 18.7747 39.673 20.642 37.7996L23.0071 40.1102C20.4552 42.4832 17.2187 43.8571 13.2975 43.8571H0.102417V40.7347H13.2975ZM44.418 43.8571H41.306V0.142822H55.3102C63.7127 0.142822 69.3144 5.76323 69.3144 14.1938C69.3144 17.9408 68.1941 21.1881 66.2024 23.7485L63.8372 21.3755C65.2688 19.502 66.2024 17.004 66.2024 14.1938C66.2024 7.6367 61.8455 3.26527 55.3102 3.26527H44.418V20.4387H55.3102C59.0447 20.4387 61.5343 17.9408 61.5343 14.1938C61.5343 10.4469 59.0447 7.94895 55.3102 7.94895H50.2064L46.9077 4.8265H55.3102C60.9119 4.8265 64.6464 8.57343 64.6464 14.1938C64.6464 19.1898 61.6588 22.8118 56.9907 23.4363L63.8372 43.8571H60.4762L53.7542 23.5612H44.418V43.8571ZM45.9741 6.07548L49.0861 9.19792V18.8775H45.9741V6.07548ZM59.0447 24.6853C60.4762 24.1857 61.6588 23.5612 62.7791 22.6245L64.9576 24.8102C64.3352 25.4347 63.7127 25.8718 62.9036 26.3714L68.692 43.8571H65.3932L59.0447 24.6853ZM50.3309 28.2449L47.0322 25.1224H52.6338L53.7542 28.2449H50.3309ZM45.9741 43.8571V26.2465L49.0861 29.3689V43.8571H45.9741ZM81.7626 0.142822H84.8747V43.8571H81.7626V0.142822ZM86.4307 0.142822H89.5428V43.8571H86.4307V0.142822Z" fill="url(#paint0_linear_124_53)"/>
<path d="M114.349 43.8571H104.183V0.142822H111.445L121.611 18.2114V0.142822H131.777V43.8571H124.515L114.349 25.7885V43.8571ZM108.54 12.4994L125.271 42.4H128.582L105.636 1.59997V42.4H108.54V12.4994ZM107.378 1.59997L130.324 42.4V1.59997H127.42V31.5005L110.69 1.59997H107.378ZM123.063 20.7177L125.968 25.7885V1.59997H123.063V20.7177ZM112.897 23.1657L109.992 18.0948V42.4H112.897V23.1657ZM150.657 43.8571H143.395V0.142822H153.561V18.2114L163.727 0.142822H175.345L162.972 22L175.345 43.8571H163.727L157.163 32.2L150.657 43.8571ZM147.752 1.59997H144.847V42.4L167.794 1.59997H164.482L147.752 31.3257V1.59997ZM149.785 42.4L159.661 24.9143L169.536 42.4H172.848L161.403 22L172.848 1.59997H169.536L146.59 42.4H149.785ZM149.204 25.7885L152.109 20.7177V1.59997H149.204V25.7885ZM167.794 42.4L159.661 28.0034L158.034 30.7428L164.599 42.4H167.794ZM210.898 14.7143C210.898 19.96 208.69 24.2148 205.205 26.6628L210.898 43.8571H200.325L195.329 29.2857H192.018V43.8571H181.852V0.142822H196.375C205.088 0.142822 210.898 5.97139 210.898 14.7143ZM197.943 23.3405C202.3 22.7577 205.088 19.3771 205.088 14.7143C205.088 9.46854 201.603 5.97139 196.375 5.97139H188.532L191.611 8.88568H196.375C199.86 8.88568 202.184 11.2171 202.184 14.7143C202.184 18.2114 199.86 20.5428 196.375 20.5428H186.209V4.51425H196.375C202.474 4.51425 206.541 8.59425 206.541 14.7143C206.541 17.3371 205.669 19.6685 204.333 21.4171L206.541 23.632C208.4 21.2423 209.445 18.2114 209.445 14.7143C209.445 6.84568 204.217 1.59997 196.375 1.59997H183.304V42.4H186.209V23.4571H194.922L201.196 42.4H204.333L197.943 23.3405ZM187.661 19.0857H190.565V10.0514L187.661 7.13711V19.0857ZM196.375 19.0857C198.989 19.0857 200.732 17.3371 200.732 14.7143C200.732 12.0914 198.989 10.3428 196.375 10.3428H192.018V19.0857H196.375ZM203.462 26.08C204.217 25.6137 204.798 25.2057 205.379 24.6228L203.346 22.5828C202.3 23.4571 201.196 24.04 199.86 24.5063L205.785 42.4H208.864L203.462 26.08ZM194.922 27.8285L193.877 24.9143H188.648L191.727 27.8285H194.922ZM190.565 42.4V28.8777L187.661 25.9634V42.4H190.565Z" fill="url(#paint1_linear_124_53)"/>
<defs>
<linearGradient id="paint0_linear_124_53" x1="44.8226" y1="0.142822" x2="44.8226" y2="43.8571" gradientUnits="userSpaceOnUse">
<stop stop-color="#FBB040"/>
<stop offset="1" stop-color="#F9ED32"/>
</linearGradient>
<linearGradient id="paint1_linear_124_53" x1="157.54" y1="0.142822" x2="157.54" y2="43.8571" gradientUnits="userSpaceOnUse">
<stop stop-color="#FBB040"/>
<stop offset="1" stop-color="#F9ED32"/>
</linearGradient>
</defs>
</svg>
